<svg xmlns="http://www.w3.org/2000/svg" width="1200" height="760" viewBox="0 0 1200 760"><rect width="1200" height="760" fill="#0b1118"/><style>text{fill:#dce5ef;font:14px sans-serif}.small{fill:#9eabb9;font-size:11px}</style><g><text x="20" y="24">26798 · Skill Speed</text><text class="small" x="20" y="42">normal</text><svg x="20" y="54" width="70" height="70" viewBox="0 0 34 34" overflow="hidden"><defs><clipPath id="clip-20-54"><rect width="34" height="34"/></clipPath></defs><image href="assets/skills-disabled.webp" x="-884" y="-136" width="1029" height="1508" preserveAspectRatio="none" clip-path="url(#clip-20-54)"/></svg><svg x="102" y="54" width="70" height="70" viewBox="0 0 34 34" overflow="hidden"><defs><clipPath id="clip-102-54"><rect width="34" height="34"/></clipPath></defs><image href="assets/skills.webp" x="-884" y="-136" width="1029" height="1508" preserveAspectRatio="none" clip-path="url(#clip-102-54)"/></svg><text class="small" x="20" y="144">inactive</text><text class="small" x="102" y="144">active</text><text class="small" x="20" y="164">skills-disabled.webp</text></g><g><text x="256" y="24">4 · Shock Chance</text><text class="small" x="256" y="42">normal</text><svg x="256" y="54" width="70" height="70" viewBox="0 0 34 34" overflow="hidden"><defs><clipPath id="clip-256-54"><rect width="34" height="34"/></clipPath></defs><image href="assets/skills-disabled.webp" x="-918" y="-68" width="1029" height="1508" preserveAspectRatio="none" clip-path="url(#clip-256-54)"/></svg><svg x="338" y="54" width="70" height="70" viewBox="0 0 34 34" overflow="hidden"><defs><clipPath id="clip-338-54"><rect width="34" height="34"/></clipPath></defs><image href="assets/skills.webp" x="-918" y="-68" width="1029" height="1508" preserveAspectRatio="none" clip-path="url(#clip-338-54)"/></svg><text class="small" x="256" y="144">inactive</text><text class="small" x="338" y="144">active</text><text class="small" x="256" y="164">skills-disabled.webp</text></g><g><text x="492" y="24">60 · Blind Chance</text><text class="small" x="492" y="42">normal</text><svg x="492" y="54" width="70" height="70" viewBox="0 0 34 34" overflow="hidden"><defs><clipPath id="clip-492-54"><rect width="34" height="34"/></clipPath></defs><image href="assets/skills-disabled.webp" x="-136" y="-68" width="1029" height="1508" preserveAspectRatio="none" clip-path="url(#clip-492-54)"/></svg><svg x="574" y="54" width="70" height="70" viewBox="0 0 34 34" overflow="hidden"><defs><clipPath id="clip-574-54"><rect width="34" height="34"/></clipPath></defs><image href="assets/skills.webp" x="-136" y="-68" width="1029" height="1508" preserveAspectRatio="none" clip-path="url(#clip-574-54)"/></svg><text class="small" x="492" y="144">inactive</text><text class="small" x="574" y="144">active</text><text class="small" x="492" y="164">skills-disabled.webp</text></g><g><text x="728" y="24">65 · Freeze Buildup</text><text class="small" x="728" y="42">normal</text><svg x="728" y="54" width="70" height="70" viewBox="0 0 34 34" overflow="hidden"><defs><clipPath id="clip-728-54"><rect width="34" height="34"/></clipPath></defs><image href="assets/skills-disabled.webp" x="0" y="-170" width="1029" height="1508" preserveAspectRatio="none" clip-path="url(#clip-728-54)"/></svg><svg x="810" y="54" width="70" height="70" viewBox="0 0 34 34" overflow="hidden"><defs><clipPath id="clip-810-54"><rect width="34" height="34"/></clipPath></defs><image href="assets/skills.webp" x="0" y="-170" width="1029" height="1508" preserveAspectRatio="none" clip-path="url(#clip-810-54)"/></svg><text class="small" x="728" y="144">inactive</text><text class="small" x="810" y="144">active</text><text class="small" x="728" y="164">skills-disabled.webp</text></g><g><text x="964" y="24">71 · Physical Damage and Reduced Duration</text><text class="small" x="964" y="42">normal</text><svg x="964" y="54" width="70" height="70" viewBox="0 0 34 34" overflow="hidden"><defs><clipPath id="clip-964-54"><rect width="34" height="34"/></clipPath></defs><image href="assets/skills-disabled.webp" x="-918" y="-102" width="1029" height="1508" preserveAspectRatio="none" clip-path="url(#clip-964-54)"/></svg><svg x="1046" y="54" width="70" height="70" viewBox="0 0 34 34" overflow="hidden"><defs><clipPath id="clip-1046-54"><rect width="34" height="34"/></clipPath></defs><image href="assets/skills.webp" x="-918" y="-102" width="1029" height="1508" preserveAspectRatio="none" clip-path="url(#clip-1046-54)"/></svg><text class="small" x="964" y="144">inactive</text><text class="small" x="1046" y="144">active</text><text class="small" x="964" y="164">skills-disabled.webp</text></g><g><text x="20" y="206">95 · Minion Damage</text><text class="small" x="20" y="224">normal</text><svg x="20" y="236" width="70" height="70" viewBox="0 0 34 34" overflow="hidden"><defs><clipPath id="clip-20-236"><rect width="34" height="34"/></clipPath></defs><image href="assets/skills-disabled.webp" x="-578" y="-204" width="1029" height="1508" preserveAspectRatio="none" clip-path="url(#clip-20-236)"/></svg><svg x="102" y="236" width="70" height="70" viewBox="0 0 34 34" overflow="hidden"><defs><clipPath id="clip-102-236"><rect width="34" height="34"/></clipPath></defs><image href="assets/skills.webp" x="-578" y="-204" width="1029" height="1508" preserveAspectRatio="none" clip-path="url(#clip-102-236)"/></svg><text class="small" x="20" y="326">inactive</text><text class="small" x="102" y="326">active</text><text class="small" x="20" y="346">skills-disabled.webp</text></g><g><text x="256" y="206">144 · Elemental Damage and Freeze Buildup</text><text class="small" x="256" y="224">normal</text><svg x="256" y="236" width="70" height="70" viewBox="0 0 34 34" overflow="hidden"><defs><clipPath id="clip-256-236"><rect width="34" height="34"/></clipPath></defs><image href="assets/skills-disabled.webp" x="-782" y="-170" width="1029" height="1508" preserveAspectRatio="none" clip-path="url(#clip-256-236)"/></svg><svg x="338" y="236" width="70" height="70" viewBox="0 0 34 34" overflow="hidden"><defs><clipPath id="clip-338-236"><rect width="34" height="34"/></clipPath></defs><image href="assets/skills.webp" x="-782" y="-170" width="1029" height="1508" preserveAspectRatio="none" clip-path="url(#clip-338-236)"/></svg><text class="small" x="256" y="326">inactive</text><text class="small" x="338" y="326">active</text><text class="small" x="256" y="346">skills-disabled.webp</text></g><g><text x="492" y="206">151 · Accuracy</text><text class="small" x="492" y="224">normal</text><svg x="492" y="236" width="70" height="70" viewBox="0 0 34 34" overflow="hidden"><defs><clipPath id="clip-492-236"><rect width="34" height="34"/></clipPath></defs><image href="assets/skills-disabled.webp" x="-782" y="-136" width="1029" height="1508" preserveAspectRatio="none" clip-path="url(#clip-492-236)"/></svg><svg x="574" y="236" width="70" height="70" viewBox="0 0 34 34" overflow="hidden"><defs><clipPath id="clip-574-236"><rect width="34" height="34"/></clipPath></defs><image href="assets/skills.webp" x="-782" y="-136" width="1029" height="1508" preserveAspectRatio="none" clip-path="url(#clip-574-236)"/></svg><text class="small" x="492" y="326">inactive</text><text class="small" x="574" y="326">active</text><text class="small" x="492" y="346">skills-disabled.webp</text></g><g><text x="728" y="206">55 · Fast Acting Toxins</text><text class="small" x="728" y="224">notable</text><svg x="728" y="236" width="70" height="70" viewBox="0 0 49 49" overflow="hidden"><defs><clipPath id="clip-728-236"><rect width="49" height="49"/></clipPath></defs><image href="assets/skills-disabled.webp" x="-490" y="-762" width="1029" height="1508" preserveAspectRatio="none" clip-path="url(#clip-728-236)"/></svg><svg x="810" y="236" width="70" height="70" viewBox="0 0 49 49" overflow="hidden"><defs><clipPath id="clip-810-236"><rect width="49" height="49"/></clipPath></defs><image href="assets/skills.webp" x="-490" y="-762" width="1029" height="1508" preserveAspectRatio="none" clip-path="url(#clip-810-236)"/></svg><text class="small" x="728" y="326">inactive</text><text class="small" x="810" y="326">active</text><text class="small" x="728" y="346">skills-disabled.webp</text></g><g><text x="964" y="206">94 · Efficient Killing</text><text class="small" x="964" y="224">notable</text><svg x="964" y="236" width="70" height="70" viewBox="0 0 49 49" overflow="hidden"><defs><clipPath id="clip-964-236"><rect width="49" height="49"/></clipPath></defs><image href="assets/skills-disabled.webp" x="-539" y="-1154" width="1029" height="1508" preserveAspectRatio="none" clip-path="url(#clip-964-236)"/></svg><svg x="1046" y="236" width="70" height="70" viewBox="0 0 49 49" overflow="hidden"><defs><clipPath id="clip-1046-236"><rect width="49" height="49"/></clipPath></defs><image href="assets/skills.webp" x="-539" y="-1154" width="1029" height="1508" preserveAspectRatio="none" clip-path="url(#clip-1046-236)"/></svg><text class="small" x="964" y="326">inactive</text><text class="small" x="1046" y="326">active</text><text class="small" x="964" y="346">skills-disabled.webp</text></g><g><text x="20" y="388">116 · Insightfulness</text><text class="small" x="20" y="406">notable</text><svg x="20" y="418" width="70" height="70" viewBox="0 0 49 49" overflow="hidden"><defs><clipPath id="clip-20-418"><rect width="49" height="49"/></clipPath></defs><image href="assets/skills-disabled.webp" x="-490" y="-1105" width="1029" height="1508" preserveAspectRatio="none" clip-path="url(#clip-20-418)"/></svg><svg x="102" y="418" width="70" height="70" viewBox="0 0 49 49" overflow="hidden"><defs><clipPath id="clip-102-418"><rect width="49" height="49"/></clipPath></defs><image href="assets/skills.webp" x="-490" y="-1105" width="1029" height="1508" preserveAspectRatio="none" clip-path="url(#clip-102-418)"/></svg><text class="small" x="20" y="508">inactive</text><text class="small" x="102" y="508">active</text><text class="small" x="20" y="528">skills-disabled.webp</text></g><g><text x="256" y="388">261 · Toxic Sludge</text><text class="small" x="256" y="406">notable</text><svg x="256" y="418" width="70" height="70" viewBox="0 0 49 49" overflow="hidden"><defs><clipPath id="clip-256-418"><rect width="49" height="49"/></clipPath></defs><image href="assets/skills-disabled.webp" x="-686" y="-762" width="1029" height="1508" preserveAspectRatio="none" clip-path="url(#clip-256-418)"/></svg><svg x="338" y="418" width="70" height="70" viewBox="0 0 49 49" overflow="hidden"><defs><clipPath id="clip-338-418"><rect width="49" height="49"/></clipPath></defs><image href="assets/skills.webp" x="-686" y="-762" width="1029" height="1508" preserveAspectRatio="none" clip-path="url(#clip-338-418)"/></svg><text class="small" x="256" y="508">inactive</text><text class="small" x="338" y="508">active</text><text class="small" x="256" y="528">skills-disabled.webp</text></g><g><text x="492" y="388">52 · Zealot&apos;s Oath</text><text class="small" x="492" y="406">keystone</text><svg x="492" y="418" width="70" height="70" viewBox="0 0 68 69" overflow="hidden"><defs><clipPath id="clip-492-418"><rect width="68" height="69"/></clipPath></defs><image href="assets/skills-disabled.webp" x="0" y="-1439" width="1029" height="1508" preserveAspectRatio="none" clip-path="url(#clip-492-418)"/></svg><svg x="574" y="418" width="70" height="70" viewBox="0 0 68 69" overflow="hidden"><defs><clipPath id="clip-574-418"><rect width="68" height="69"/></clipPath></defs><image href="assets/skills.webp" x="0" y="-1439" width="1029" height="1508" preserveAspectRatio="none" clip-path="url(#clip-574-418)"/></svg><text class="small" x="492" y="508">inactive</text><text class="small" x="574" y="508">active</text><text class="small" x="492" y="528">skills-disabled.webp</text></g><g><text x="728" y="388">9085 · Crimson Assault</text><text class="small" x="728" y="406">keystone</text><svg x="728" y="418" width="70" height="70" viewBox="0 0 68 69" overflow="hidden"><defs><clipPath id="clip-728-418"><rect width="68" height="69"/></clipPath></defs><image href="assets/skills-disabled.webp" x="-68" y="-1301" width="1029" height="1508" preserveAspectRatio="none" clip-path="url(#clip-728-418)"/></svg><svg x="810" y="418" width="70" height="70" viewBox="0 0 68 69" overflow="hidden"><defs><clipPath id="clip-810-418"><rect width="68" height="69"/></clipPath></defs><image href="assets/skills.webp" x="-68" y="-1301" width="1029" height="1508" preserveAspectRatio="none" clip-path="url(#clip-810-418)"/></svg><text class="small" x="728" y="508">inactive</text><text class="small" x="810" y="508">active</text><text class="small" x="728" y="528">skills-disabled.webp</text></g><g><text x="964" y="388">11230 · Ritual Cadence</text><text class="small" x="964" y="406">keystone</text><svg x="964" y="418" width="70" height="70" viewBox="0 0 68 69" overflow="hidden"><defs><clipPath id="clip-964-418"><rect width="68" height="69"/></clipPath></defs><image href="assets/skills-disabled.webp" x="-884" y="-1370" width="1029" height="1508" preserveAspectRatio="none" clip-path="url(#clip-964-418)"/></svg><svg x="1046" y="418" width="70" height="70" viewBox="0 0 68 69" overflow="hidden"><defs><clipPath id="clip-1046-418"><rect width="68" height="69"/></clipPath></defs><image href="assets/skills.webp" x="-884" y="-1370" width="1029" height="1508" preserveAspectRatio="none" clip-path="url(#clip-1046-418)"/></svg><text class="small" x="964" y="508">inactive</text><text class="small" x="1046" y="508">active</text><text class="small" x="964" y="528">skills-disabled.webp</text></g><g><text x="20" y="570">2491 · [Jewel] Socket</text><text class="small" x="20" y="588">jewel-socket</text><svg x="20" y="600" width="70" height="70" viewBox="0 0 34 34" overflow="hidden"><defs><clipPath id="clip-20-600"><rect width="34" height="34"/></clipPath></defs><image href="assets/skills-disabled.webp" x="-68" y="-102" width="1029" height="1508" preserveAspectRatio="none" clip-path="url(#clip-20-600)"/></svg><svg x="102" y="600" width="70" height="70" viewBox="0 0 34 34" overflow="hidden"><defs><clipPath id="clip-102-600"><rect width="34" height="34"/></clipPath></defs><image href="assets/skills.webp" x="-68" y="-102" width="1029" height="1508" preserveAspectRatio="none" clip-path="url(#clip-102-600)"/></svg><text class="small" x="20" y="690">inactive</text><text class="small" x="102" y="690">active</text><text class="small" x="20" y="710">skills-disabled.webp</text></g><g><text x="256" y="570">3367 · [SinisterJewelSockets|Sinister] [Jewel] Socket</text><text class="small" x="256" y="588">jewel-socket</text><svg x="256" y="600" width="70" height="70" viewBox="0 0 34 34" overflow="hidden"><defs><clipPath id="clip-256-600"><rect width="34" height="34"/></clipPath></defs><image href="assets/skills-disabled.webp" x="-68" y="-102" width="1029" height="1508" preserveAspectRatio="none" clip-path="url(#clip-256-600)"/></svg><svg x="338" y="600" width="70" height="70" viewBox="0 0 34 34" overflow="hidden"><defs><clipPath id="clip-338-600"><rect width="34" height="34"/></clipPath></defs><image href="assets/skills.webp" x="-68" y="-102" width="1029" height="1508" preserveAspectRatio="none" clip-path="url(#clip-338-600)"/></svg><text class="small" x="256" y="690">inactive</text><text class="small" x="338" y="690">active</text><text class="small" x="256" y="710">skills-disabled.webp</text></g><g><text x="492" y="570">47175 · MARAUDER</text><text class="small" x="492" y="588">class-start</text><svg x="492" y="600" width="70" height="70" viewBox="0 0 34 34" overflow="hidden"><defs><clipPath id="clip-492-600"><rect width="34" height="34"/></clipPath></defs><image href="assets/skills-disabled.webp" x="-136" y="-170" width="1029" height="1508" preserveAspectRatio="none" clip-path="url(#clip-492-600)"/></svg><svg x="574" y="600" width="70" height="70" viewBox="0 0 34 34" overflow="hidden"><defs><clipPath id="clip-574-600"><rect width="34" height="34"/></clipPath></defs><image href="assets/skills.webp" x="-136" y="-170" width="1029" height="1508" preserveAspectRatio="none" clip-path="url(#clip-574-600)"/></svg><text class="small" x="492" y="690">inactive</text><text class="small" x="574" y="690">active</text><text class="small" x="492" y="710">skills-disabled.webp</text></g><g><text x="728" y="570">16 · Life Flask Charges</text><text class="small" x="728" y="588">ascendancy-small</text><svg x="728" y="600" width="70" height="70" viewBox="0 0 34 34" overflow="hidden"><defs><clipPath id="clip-728-600"><rect width="34" height="34"/></clipPath></defs><image href="assets/skills-disabled.webp" x="-782" y="-102" width="1029" height="1508" preserveAspectRatio="none" clip-path="url(#clip-728-600)"/></svg><svg x="810" y="600" width="70" height="70" viewBox="0 0 34 34" overflow="hidden"><defs><clipPath id="clip-810-600"><rect width="34" height="34"/></clipPath></defs><image href="assets/skills.webp" x="-782" y="-102" width="1029" height="1508" preserveAspectRatio="none" clip-path="url(#clip-810-600)"/></svg><text class="small" x="728" y="690">inactive</text><text class="small" x="810" y="690">active</text><text class="small" x="728" y="710">skills-disabled.webp</text></g><g><text x="964" y="570">30 · Gathering Winds</text><text class="small" x="964" y="588">ascendancy-notable</text><svg x="964" y="600" width="70" height="70" viewBox="0 0 49 49" overflow="hidden"><defs><clipPath id="clip-964-600"><rect width="49" height="49"/></clipPath></defs><image href="assets/skills-disabled.webp" x="0" y="-468" width="1029" height="1508" preserveAspectRatio="none" clip-path="url(#clip-964-600)"/></svg><svg x="1046" y="600" width="70" height="70" viewBox="0 0 49 49" overflow="hidden"><defs><clipPath id="clip-1046-600"><rect width="49" height="49"/></clipPath></defs><image href="assets/skills.webp" x="0" y="-468" width="1029" height="1508" preserveAspectRatio="none" clip-path="url(#clip-1046-600)"/></svg><text class="small" x="964" y="690">inactive</text><text class="small" x="1046" y="690">active</text><text class="small" x="964" y="710">skills-disabled.webp</text></g></svg>
